<svg xmlns="http://www.w3.org/2000/svg" viewBox="0 0 104 104" role="img" aria-hidden="true">
  <defs>
    <symbol id="audiolad-mark" viewBox="0 0 64 64">
      <g fill="#7042c5" opacity="0.18">
        <ellipse cx="32" cy="18" rx="7.5" ry="13"/>
        <ellipse cx="17" cy="27" rx="7" ry="11.5" transform="rotate(-34 17 27)"/>
        <ellipse cx="47" cy="27" rx="7" ry="11.5" transform="rotate(34 47 27)"/>
        <ellipse cx="21" cy="41" rx="6.5" ry="10" transform="rotate(-18 21 41)"/>
        <ellipse cx="43" cy="41" rx="6.5" ry="10" transform="rotate(18 43 41)"/>
      </g>
      <path d="M35.5 17.5c-7.5 4.2-11.2 14.2-9.2 23.6 1.4 6.8 5.2 12.1 5.7 12.8.5-.7 4.3-6 5.7-12.8 2-9.4-1.7-19.4-9.2-23.6z" fill="#7042c5" opacity="0.16"/>
      <path d="M33.8 21.2c-3.8 7.6-3.1 17.2-.2 24.6 1 2.4 1.9 4.3 2 4.6.1-.3 1-2.2 2-4.6 2.9-7.4 3.6-17-.2-24.6" fill="none" stroke="#7042c5" stroke-width="2.4" stroke-linecap="round"/>
    </symbol>
  </defs>
  <rect width="104" height="104" rx="24" fill="#ffffff"/>
  <rect x="1.5" y="1.5" width="101" height="101" rx="22.5" fill="none" stroke="#7042c5" stroke-width="3"/>
  <use href="#audiolad-mark" x="20" y="20" width="64" height="64"/>
</svg>
