<svg xmlns="http://www.w3.org/2000/svg" viewBox="0 0 1440 320" preserveAspectRatio="xMidYMid slice" role="img" aria-hidden="true">
  <defs>
    <linearGradient id="audiolad-banner-bg" x1="0%" y1="0%" x2="100%" y2="100%">
      <stop offset="0%" stop-color="#2a1458"/>
      <stop offset="45%" stop-color="#4a2d82"/>
      <stop offset="100%" stop-color="#6b3fb8"/>
    </linearGradient>
    <radialGradient id="audiolad-banner-glow" cx="72%" cy="18%" r="58%">
      <stop offset="0%" stop-color="#b892ff" stop-opacity="0.34"/>
      <stop offset="55%" stop-color="#7042c5" stop-opacity="0.12"/>
      <stop offset="100%" stop-color="#2a1458" stop-opacity="0"/>
    </radialGradient>
    <radialGradient id="audiolad-banner-glow-2" cx="18%" cy="82%" r="48%">
      <stop offset="0%" stop-color="#d8c4ff" stop-opacity="0.16"/>
      <stop offset="100%" stop-color="#2a1458" stop-opacity="0"/>
    </radialGradient>
    <symbol id="audiolad-mark" viewBox="0 0 64 64">
      <g fill="#d8c4ff">
        <ellipse cx="32" cy="18" rx="7.5" ry="13" opacity="0.82"/>
        <ellipse cx="17" cy="27" rx="7" ry="11.5" transform="rotate(-34 17 27)" opacity="0.68"/>
        <ellipse cx="47" cy="27" rx="7" ry="11.5" transform="rotate(34 47 27)" opacity="0.68"/>
        <ellipse cx="21" cy="41" rx="6.5" ry="10" transform="rotate(-18 21 41)" opacity="0.52"/>
        <ellipse cx="43" cy="41" rx="6.5" ry="10" transform="rotate(18 43 41)" opacity="0.52"/>
      </g>
      <path d="M35.5 17.5c-7.5 4.2-11.2 14.2-9.2 23.6 1.4 6.8 5.2 12.1 5.7 12.8.5-.7 4.3-6 5.7-12.8 2-9.4-1.7-19.4-9.2-23.6z" fill="#f3ebff"/>
      <path d="M33.8 21.2c-3.8 7.6-3.1 17.2-.2 24.6 1 2.4 1.9 4.3 2 4.6.1-.3 1-2.2 2-4.6 2.9-7.4 3.6-17-.2-24.6" fill="none" stroke="#7042c5" stroke-width="2.4" stroke-linecap="round"/>
    </symbol>
    <pattern id="audiolad-lotus-a" width="168" height="168" patternUnits="userSpaceOnUse" patternTransform="rotate(-12)">
      <use href="#audiolad-mark" x="52" y="52" width="64" height="64" opacity="0.11"/>
    </pattern>
    <pattern id="audiolad-lotus-b" width="168" height="168" patternUnits="userSpaceOnUse" patternTransform="rotate(-12)" x="84" y="84">
      <use href="#audiolad-mark" x="52" y="52" width="64" height="64" opacity="0.06"/>
    </pattern>
  </defs>
  <rect width="1440" height="320" fill="url(#audiolad-banner-bg)"/>
  <rect width="1440" height="320" fill="url(#audiolad-banner-glow)"/>
  <rect width="1440" height="320" fill="url(#audiolad-banner-glow-2)"/>
  <rect width="1440" height="320" fill="url(#audiolad-lotus-a)"/>
  <rect width="1440" height="320" fill="url(#audiolad-lotus-b)"/>
</svg>
